<?xml version="1.0" encoding="UTF-8" standalone="no"?>
<svg
   xmlns:dc="http://purl.org/dc/elements/1.1/"
   xmlns:cc="http://creativecommons.org/ns#"
   xmlns:rdf="http://www.w3.org/1999/02/22-rdf-syntax-ns#"
   xmlns:svg="http://www.w3.org/2000/svg"
   xmlns="http://www.w3.org/2000/svg"
   xmlns:sodipodi="http://sodipodi.sourceforge.net/DTD/sodipodi-0.dtd"
   xmlns:inkscape="http://www.inkscape.org/namespaces/inkscape"
   id="ff0c9448-1819-42bc-8108-45a86d359f61"
   data-name="Layer 1"
   width="900"
   height="900"
   viewBox="0 0 900.00001 900.00002"
   version="1.1"
   sodipodi:docname="illustration.svg"
   inkscape:version="1.0.1 (3bc2e813f5, 2020-09-07)">
  <metadata
     id="metadata1939">
    <rdf:RDF>
      <cc:Work
         rdf:about="">
        <dc:format>image/svg+xml</dc:format>
        <dc:type
           rdf:resource="http://purl.org/dc/dcmitype/StillImage" />
        <dc:title></dc:title>
      </cc:Work>
    </rdf:RDF>
  </metadata>
  <defs
     id="defs1937">
    <filter
       style="color-interpolation-filters:sRGB"
       inkscape:label="Greyscale"
       id="filter2509">
      <feColorMatrix
         values="0.67 0.72 0.07 -0.3 0 0.67 0.72 0.07 -0.3 0 0.67 0.72 0.07 -0.3 0 0 0 0 1 0 "
         id="feColorMatrix2507" />
    </filter>
    <filter
       style="color-interpolation-filters:sRGB"
       inkscape:label="Greyscale"
       id="filter2513">
      <feColorMatrix
         values="0.67 0.72 0.07 -0.3 0 0.67 0.72 0.07 -0.3 0 0.67 0.72 0.07 -0.3 0 0 0 0 1 0 "
         id="feColorMatrix2511" />
    </filter>
    <filter
       style="color-interpolation-filters:sRGB"
       inkscape:label="Greyscale"
       id="filter2517">
      <feColorMatrix
         values="0.67 0.72 0.07 -0.3 0 0.67 0.72 0.07 -0.3 0 0.67 0.72 0.07 -0.3 0 0 0 0 1 0 "
         id="feColorMatrix2515" />
    </filter>
    <filter
       style="color-interpolation-filters:sRGB"
       inkscape:label="Greyscale"
       id="filter2521">
      <feColorMatrix
         values="0.67 0.72 0.07 -0.3 0 0.67 0.72 0.07 -0.3 0 0.67 0.72 0.07 -0.3 0 0 0 0 1 0 "
         id="feColorMatrix2519" />
    </filter>
    <filter
       style="color-interpolation-filters:sRGB"
       inkscape:label="Greyscale"
       id="filter2525">
      <feColorMatrix
         values="0.67 0.72 0.07 -0.3 0 0.67 0.72 0.07 -0.3 0 0.67 0.72 0.07 -0.3 0 0 0 0 1 0 "
         id="feColorMatrix2523" />
    </filter>
    <filter
       style="color-interpolation-filters:sRGB"
       inkscape:label="Greyscale"
       id="filter2529">
      <feColorMatrix
         values="0.67 0.72 0.07 -0.3 0 0.67 0.72 0.07 -0.3 0 0.67 0.72 0.07 -0.3 0 0 0 0 1 0 "
         id="feColorMatrix2527" />
    </filter>
    <filter
       style="color-interpolation-filters:sRGB"
       inkscape:label="Greyscale"
       id="filter2533">
      <feColorMatrix
         values="0.67 0.72 0.07 -0.3 0 0.67 0.72 0.07 -0.3 0 0.67 0.72 0.07 -0.3 0 0 0 0 1 0 "
         id="feColorMatrix2531" />
    </filter>
    <filter
       style="color-interpolation-filters:sRGB"
       inkscape:label="Greyscale"
       id="filter2537">
      <feColorMatrix
         values="0.67 0.72 0.07 -0.3 0 0.67 0.72 0.07 -0.3 0 0.67 0.72 0.07 -0.3 0 0 0 0 1 0 "
         id="feColorMatrix2535" />
    </filter>
    <filter
       style="color-interpolation-filters:sRGB"
       inkscape:label="Greyscale"
       id="filter2541">
      <feColorMatrix
         values="0.67 0.72 0.07 -0.3 0 0.67 0.72 0.07 -0.3 0 0.67 0.72 0.07 -0.3 0 0 0 0 1 0 "
         id="feColorMatrix2539" />
    </filter>
    <filter
       style="color-interpolation-filters:sRGB"
       inkscape:label="Greyscale"
       id="filter2545">
      <feColorMatrix
         values="0.67 0.72 0.07 -0.3 0 0.67 0.72 0.07 -0.3 0 0.67 0.72 0.07 -0.3 0 0 0 0 1 0 "
         id="feColorMatrix2543" />
    </filter>
    <filter
       style="color-interpolation-filters:sRGB"
       inkscape:label="Greyscale"
       id="filter2549">
      <feColorMatrix
         values="0.67 0.72 0.07 -0.3 0 0.67 0.72 0.07 -0.3 0 0.67 0.72 0.07 -0.3 0 0 0 0 1 0 "
         id="feColorMatrix2547" />
    </filter>
    <filter
       style="color-interpolation-filters:sRGB"
       inkscape:label="Greyscale"
       id="filter2553">
      <feColorMatrix
         values="0.67 0.72 0.07 -0.3 0 0.67 0.72 0.07 -0.3 0 0.67 0.72 0.07 -0.3 0 0 0 0 1 0 "
         id="feColorMatrix2551" />
    </filter>
    <filter
       style="color-interpolation-filters:sRGB"
       inkscape:label="Greyscale"
       id="filter2557">
      <feColorMatrix
         values="0.67 0.72 0.07 -0.3 0 0.67 0.72 0.07 -0.3 0 0.67 0.72 0.07 -0.3 0 0 0 0 1 0 "
         id="feColorMatrix2555" />
    </filter>
    <filter
       style="color-interpolation-filters:sRGB"
       inkscape:label="Greyscale"
       id="filter2561">
      <feColorMatrix
         values="0.67 0.72 0.07 -0.3 0 0.67 0.72 0.07 -0.3 0 0.67 0.72 0.07 -0.3 0 0 0 0 1 0 "
         id="feColorMatrix2559" />
    </filter>
  </defs>
  <sodipodi:namedview
     pagecolor="#ffffff"
     bordercolor="#666666"
     borderopacity="1"
     objecttolerance="10"
     gridtolerance="10"
     guidetolerance="10"
     inkscape:pageopacity="0"
     inkscape:pageshadow="2"
     inkscape:window-width="1920"
     inkscape:window-height="1017"
     id="namedview1935"
     showgrid="false"
     inkscape:zoom="1.5419452"
     inkscape:cx="319.54986"
     inkscape:cy="354.75945"
     inkscape:window-x="-8"
     inkscape:window-y="-8"
     inkscape:window-maximized="1"
     inkscape:current-layer="g2592" />
  <g
     id="g2592"
     transform="translate(34.79068,84.817644)">
    <path
       id="af2b64c4-1d88-45b0-a92f-54de07391bf6"
       data-name="Path 945"
       d="m 599.9595,712.94294 v -2 c 3.977,0 8.013,-0.083 12,-0.242 l 0.08,2 c -4.01402,0.159 -8.07701,0.24106 -12.08,0.242 z m -12.075,-0.231 c -4,-0.156 -8.055,-0.4 -12.057,-0.711 l 0.157,-1.994 c 3.976,0.314 8.006,0.552 11.978,0.707 z m 36.21,-0.737 -0.159,-1.994 c 3.969,-0.317 7.985,-0.721 11.938,-1.2 l 0.24,1.986 c -3.979,0.481 -8.022,0.886 -12.019,1.206 z m -60.287,-1.166 c -3.988,-0.478 -8.012,-1.041 -11.962,-1.675 l 0.317,-1.975 c 3.923,0.63 7.921,1.189 11.882,1.663 z m 84.265,-1.729 -0.319,-1.975 c 3.922,-0.634 7.894,-1.359 11.8,-2.154 l 0.4,1.959 c -3.935,0.8 -7.934,1.531 -11.882,2.17 z m -108.112,-2.1 c -3.936,-0.8 -7.9,-1.685 -11.789,-2.636 l 0.476,-1.943 c 3.861,0.946 7.8,1.827 11.709,2.618 z m 131.781,-2.717 -0.479,-1.941 c 3.873,-0.953 7.772,-2 11.59,-3.1 l 0.557,1.922 c -3.845,1.113 -7.771,2.164 -11.668,3.123 z m -155.242,-3.03 c -3.856,-1.113 -7.738,-2.318 -11.536,-3.582 l 0.632,-1.9 c 3.773,1.256 7.628,2.453 11.459,3.559 z m 178.441,-3.689 -0.634,-1.9 c 3.775,-1.262 7.577,-2.618 11.3,-4.033 l 0.711,1.869 c -3.749,1.425 -7.577,2.791 -11.378,4.061 z m -201.39,-3.952 c -3.752,-1.422 -7.531,-2.941 -11.233,-4.519 l 0.784,-1.84 c 3.677,1.566 7.432,3.076 11.159,4.487 z m 223.94,-4.612 -0.785,-1.84 c 3.656,-1.562 7.327,-3.217 10.91,-4.921 l 0.859,1.807 c -3.607,1.715 -7.3,3.382 -10.984,4.954 z m -246.21,-4.87891 c -3.633,-1.725 -7.275,-3.545 -10.825,-5.411 l 0.931,-1.77 c 3.526,1.853 7.143,3.661 10.751,5.374 z m 267.977,-5.475 -0.932,-1.77 c 3.522,-1.854 7.051,-3.8 10.486,-5.789 l 1,1.73 c -3.459,2 -7.011,3.962 -10.557,5.828 z m -289.397,-5.779 c -3.485,-2.015 -6.966,-4.122 -10.347,-6.264 l 1.07,-1.689 c 3.357,2.127 6.815,4.221 10.277,6.223 z m 310.269,-6.3 -1.07,-1.689 c 3.353,-2.124 6.715,-4.35 9.993,-6.616 l 1.137,1.645 c -3.3,2.282 -6.685,4.523 -10.06,6.661 z m -330.7,-6.638 c -3.307,-2.285 -6.606,-4.664 -9.805,-7.071 l 1.2,-1.6 c 3.178,2.391 6.455,4.754 9.74,7.024 z m 350.551,-7.082 -1.2,-1.6 c 3.171,-2.385 6.346,-4.874 9.437,-7.4 l 1.266,1.549 c -3.111,2.542 -6.308,5.048 -9.5,7.448 z m -369.864,-7.446 c -3.105,-2.537 -6.2,-5.172 -9.2,-7.832 l 1.326,-1.5 c 2.982,2.642 6.058,5.26 9.142,7.779 z m 388.558,-7.827 -1.326,-1.5 c 2.979,-2.641 5.946,-5.378 8.817,-8.135 l 1.385,1.443 c -2.89,2.774 -5.876,5.529 -8.876,8.188 z m -406.641,-8.2 c -2.885,-2.771 -5.759,-5.645 -8.543,-8.539 l 1.441,-1.387 c 2.766,2.876 5.621,5.73 8.487,8.482 z m 424.061,-8.531 -1.441,-1.387 c 2.757,-2.867 5.5,-5.833 8.143,-8.816 l 1.5,1.328 c -2.664,3 -5.422,5.988 -8.2,8.875 z m -440.8,-8.879 c -2.667,-3.006 -5.3,-6.1 -7.831,-9.192 l 1.549,-1.266 c 2.512,3.073 5.129,6.146 7.778,9.13 z m 456.832,-9.194 -1.549,-1.266 c 2.527,-3.09 5.021,-6.268 7.414,-9.444 l 1.6,1.2 c -2.408,3.2 -4.92,6.4 -7.463,9.507 z m -472.116,-9.492 c -2.41,-3.2 -4.788,-6.491 -7.066,-9.783 l 1.645,-1.139 c 2.263,3.271 4.625,6.54 7.019,9.719 z m 486.656,-9.817 -1.645,-1.137 c 2.271,-3.285 4.5,-6.654 6.634,-10.014 l 1.689,1.07 c -2.14508,3.38611 -4.39209,6.7771 -6.67908,10.08411 z M 346.28048,573.421 c -2.143,-3.379 -4.248,-6.849 -6.255,-10.313 l 1.73,-1 c 1.994,3.441 4.085,6.888 6.213,10.244 z m 513.338,-10.4 -1.73,-1 c 2,-3.46 3.956,-7 5.809,-10.521 l 1.77,0.932 c -1.864,3.544 -3.832,7.107 -5.848,10.591 z m -525.426,-10.47 c -1.863,-3.538 -3.681,-7.164 -5.4,-10.777 l 1.806,-0.859 c 1.709,3.589 3.515,7.19 5.365,10.705 z m 536.688,-10.942 -1.807,-0.859 c 1.712,-3.6 3.375,-7.289 4.941,-10.961 l 1.84,0.785 c -1.574,3.69194 -3.25198,7.409 -4.97402,11.03493 z m -547.054,-10.815 c -1.575,-3.684 -3.093,-7.441 -4.511,-11.17 l 1.869,-0.711 c 1.409,3.7 2.917,7.436 4.481,11.094 z m 556.554,-11.453 -1.87,-0.709 c 1.418,-3.741 2.777,-7.555 4.038,-11.333 l 1.9,0.633 c -1.27298,3.805 -2.64102,7.64293 -4.06802,11.409 z m -565.13,-11.093 c -1.273,-3.8 -2.485,-7.682 -3.6,-11.53 l 1.921,-0.557 c 1.109,3.822 2.313,7.676 3.578,11.452 z m 572.783,-11.852 -1.922,-0.555 c 1.1,-3.816 2.146,-7.716 3.1,-11.592 l 1.941,0.477 c -0.96001,3.903 -2.00902,7.82894 -3.11901,11.67 z m -579.517,-11.345 c -0.961,-3.895 -1.854,-7.858 -2.656,-11.783 l 1.96,-0.4 c 0.8,3.9 1.683,7.837 2.637,11.705 z m 585.27695,-12.11 -1.961,-0.4 c 0.791,-3.9 1.514,-7.867 2.148,-11.8 l 1.975,0.318 c -0.639,3.963 -1.366,7.961 -2.162,11.884 z M 303.68049,461.386 c -0.641,-3.948 -1.211,-7.972 -1.695,-11.959 l 1.985,-0.24 c 0.48,3.961 1.047,7.957 1.684,11.879 z m 593.953,-12.293 -1.986,-0.238 c 0.476,-3.959 0.877,-7.976 1.191,-11.938 l 1.994,0.158 c -0.317,3.989 -0.721,8.033 -1.2,12.018 z m -596.853,-11.682 c -0.323,-3.995 -0.569,-8.051 -0.731,-12.058 l 2,-0.081 c 0.162,3.979 0.406,8.009 0.727,11.978 z m 598.778,-12.391 -2,-0.079 c 0.156,-3.985 0.236,-8.021 0.236,-12 v -0.663 h 2 v 0.658 c -10e-4,4.009 -0.0811,8.071 -0.239,12.084 z m -597.766,-11.744 h -2 v -0.336 c 0,-3.9 0.076,-7.853 0.226,-11.739 l 2,0.077 c -0.148,3.861 -0.224,7.786 -0.224,11.666 z m 595.73606,-12.988 c -0.165,-3.971 -0.413,-8 -0.739,-11.977 l 1.994,-0.163 c 0.327,4 0.577,8.059 0.743,12.057 z m -594.811,-10.988 -1.994,-0.156 c 0.314,-4 0.714,-8.049 1.187,-12.021 l 1.986,0.236 c -0.47007,3.94594 -0.86607,7.96294 -1.17906,11.94094 z m 592.855,-12.925 c -0.482,-3.944 -1.053,-7.94 -1.7,-11.877 l 1.975,-0.323 c 0.647,3.963 1.223,7.986 1.707,11.958 z m -590.02,-10.9 -1.975,-0.316 c 0.634,-3.96 1.357,-7.959 2.15,-11.886 l 1.96,0.4 c -0.788,3.9 -1.506,7.873 -2.136,11.807 z m 586.147,-12.779 c -0.8,-3.908 -1.694,-7.845 -2.65,-11.7 l 1.941,-0.481 c 0.963,3.883 1.86,7.847 2.668,11.781 z m -581.4,-10.739 -1.943,-0.475 c 0.951,-3.893 2,-7.82 3.105,-11.675 l 1.922,0.553 c -1.10294,3.832 -2.139,7.733 -3.08393,11.599 z m 575.628,-12.548 c -1.113,-3.82 -2.32,-7.672 -3.59,-11.449 l 1.9,-0.637 c 1.277,3.8 2.493,7.68 3.613,11.526 z m -568.99191,-10.506 -1.9,-0.631 c 1.266,-3.808 2.629,-7.648 4.052,-11.414 l 1.871,0.707 c -1.41217,3.73994 -2.76617,7.555 -4.02316,11.33794 z m 561.345,-12.237 c -1.421,-3.72 -2.933,-7.451 -4.493,-11.09 l 1.838,-0.788 c 1.571,3.663 3.094,7.419 4.524,11.164 z m -552.838,-10.263 -1.841,-0.783 c 1.572,-3.695 3.242,-7.41 4.963,-11.04 l 1.807,0.856 c -1.70917,3.60694 -3.36817,7.29694 -4.92917,10.96694 z m 543.409,-11.728 c -1.712,-3.585 -3.521,-7.185 -5.376,-10.7 l 1.768,-0.934 c 1.869,3.538 3.69,7.162 5.413,10.771 z m -533.111,-9.995 -1.771,-0.929 c 1.864,-3.553 3.828,-7.119 5.836,-10.6 l 1.732,1 c -1.994,3.459 -3.945,7.001 -5.796,10.53 z m 521.928,-11.181 c -2,-3.443 -4.094,-6.887 -6.225,-10.238 l 1.688,-1.073 c 2.146,3.374 4.253,6.841 6.267,10.307 z m -509.915,-9.626 -1.69,-1.069 c 2.146,-3.392 4.389,-6.786 6.668,-10.087 l 1.646,1.136 c -2.26291,3.28 -4.49094,6.651 -6.62293,10.021 z m 497.0571,-10.594 c -2.269,-3.269 -4.634,-6.537 -7.029,-9.71 l 1.6,-1.205 c 2.412,3.2 4.793,6.484 7.076,9.776 z m -483.414,-9.17 -1.6,-1.2 c 2.41,-3.208 4.917,-6.409 7.452,-9.516 l 1.55,1.265 c -2.518,3.085 -5.009,6.266 -7.4,9.452 z m 468.969,-9.964 c -2.522,-3.078 -5.144,-6.146 -7.788,-9.121 l 1.494,-1.329 c 2.663,2.995 5.3,6.084 7.841,9.183 z m -453.785,-8.635 -1.5,-1.325 c 2.655,-3 5.41,-5.989 8.187,-8.885 l 1.443,1.385 c -2.759,2.876 -5.5,5.846 -8.133,8.825 z m 437.855,-9.292 c -2.768,-2.872 -5.626,-5.722 -8.5,-8.473 l 1.384,-1.444 c 2.89,2.77 5.768,5.639 8.553,8.53 z m -421.244,-8.025 -1.387,-1.441 c 2.886,-2.777 5.87,-5.535 8.868,-8.2 l 1.328,1.5 c -2.98306,2.643 -5.947,5.383 -8.81405,8.142 z m 403.917,-8.577 c -2.988,-2.642 -6.067,-5.256 -9.15,-7.77 l 1.264,-1.55 c 3.1,2.53 6.2,5.162 9.211,7.822 z m -385.987,-7.35 -1.268,-1.547 c 3.1,-2.542 6.3,-5.051 9.491,-7.459 l 1.2,1.6 c -3.16926,2.38894 -6.34125,4.88194 -9.42326,7.40594 z m 367.374,-7.817 c -3.19,-2.395 -6.471,-4.754 -9.747,-7.014 l 1.135,-1.646 c 3.3,2.275 6.6,4.65 9.813,7.061 z m -348.231,-6.618 -1.14,-1.644 c 3.3,-2.285 6.679,-4.529 10.053,-6.672 l 1.072,1.688 c -3.351,2.128 -6.711,4.357 -9.986,6.627 z m 328.46,-7.015 c -3.372,-2.13 -6.832,-4.219 -10.285,-6.21 l 1,-1.732 c 3.475,2 6.958,4.107 10.354,6.251 z m -308.233,-5.83 -1,-1.73 c 3.458,-2.005 7.008,-3.97 10.55,-5.839 l 0.934,1.769 c -3.52326,1.85594 -7.04926,3.80694 -10.48426,5.79994 z m 287.419,-6.171 c -3.532,-1.851 -7.151,-3.655 -10.758,-5.362 l 0.855,-1.808 c 3.631,1.719 7.275,3.535 10.83,5.4 z m -266.238,-5 -0.861,-1.806 c 3.606,-1.719 7.3,-3.39 10.979,-4.966 l 0.787,1.838 c -3.654,1.565 -7.324,3.225 -10.906,4.934 z m 244.508,-5.286 c -3.676,-1.561 -7.432,-3.066 -11.164,-4.476 l 0.707,-1.871 c 3.757,1.418 7.539,2.935 11.238,4.506 z m -222.509,-4.135 -0.712,-1.869 c 3.742,-1.427 7.568,-2.8 11.372,-4.073 l 0.636,1.9 c -3.77927,1.26294 -7.57926,2.62494 -11.29627,4.04194 z m 200.009,-4.36 c -3.779,-1.253 -7.636,-2.446 -11.463,-3.545 l 0.553,-1.922 c 3.853,1.106 7.734,2.307 11.539,3.569 z m -177.262,-3.268 -0.559,-1.92 c 3.846,-1.119 7.771,-2.175 11.665,-3.138 l 0.48,1.941 c -3.86726,0.95494 -7.76625,2.00394 -11.58626,3.11694 z m 154.2,-3.352 c -3.861,-0.942 -7.8,-1.818 -11.712,-2.605 l 0.395,-1.961 c 3.937,0.792 7.9,1.675 11.792,2.623 z m -130.91,-2.408 -0.4,-1.959 c 3.921,-0.8 7.918,-1.537 11.88,-2.183 l 0.322,1.974 c -3.938,0.639 -7.908,1.369 -11.803,2.166 z m 107.39,-2.326 c -3.933,-0.627 -7.932,-1.183 -11.885,-1.65 l 0.235,-1.986 c 3.979,0.471 8,1.03 11.964,1.662 z m -83.711,-1.533 -0.242,-1.985 c 3.979,-0.484 8.021,-0.9 12.017,-1.219 l 0.162,1.993 c -3.97,0.32 -7.986,0.73 -11.937,1.209 z m 59.886,-1.29 c -3.965,-0.309 -8,-0.542 -11.979,-0.693 l 0.076,-2 c 4.01,0.152 8.066,0.387 12.058,0.7 z m -35.972,-0.655 -0.082,-2 c 4,-0.165 8.062,-0.252 12.076,-0.259 v 2 c -3.985,0.007 -8.022,0.094 -11.995,0.257 z"
       transform="translate(-184.79068,-112.94296)"
       fill="#ccc"
       style="fill:#f5df4d;fill-opacity:1;stroke-width:66.70866142;stroke-miterlimit:4;stroke-dasharray:none" />
    <path
       d="M 786.06,786.22907 H 414.05044 c -18.59363,-0.0205 -33.7367,-14.27149 -33.757,-31.76856 V 247.213 c 0.0214,-17.49853 15.16443,-31.74951 33.75647,-31.769 h 372.00956 c 18.59375,0.0195 33.73682,14.27051 33.75708,31.76855 V 754.46 c -0.0212,17.49856 -15.16431,31.74953 -33.75655,31.76907 z"
       transform="translate(-184.79068,-112.94296)"
       fill="#3f3d56"
       id="path1864"
       style="filter:url(#filter2509);fill:#1d1d1e;fill-opacity:1" />
    <path
       d="M 789.75552,755.69586 H 410.355 c -6.01367,-0.006 -10.91162,-4.354 -10.91894,-9.69238 V 259.02887 c 0.007,-5.33887 4.90527,-9.68652 10.91845,-9.69287 H 789.755 c 6.01343,0.006 10.91137,4.354 10.91894,9.69238 V 746.003 c -0.008,5.33886 -4.90548,9.68651 -10.91842,9.69286 z"
       fill="#fff"
       id="path1866"
       style="fill:#ffffff"
       transform="translate(-184.79068,-112.94296)" />
    <path
       id="a2e92954-9457-422e-9ad9-6983f1497d30"
       data-name="Path 45"
       d="m 415.25913,489.57296 a 99.954159,99.954159 0 0 1 -99.99915,-99.90917 v -0.09 c 0,-0.21 0,-0.43 0.0124,-0.64 a 99.999159,99.999159 0 1 1 99.99916,100.63749 h -0.0123 z m 0,-197.89501 a 98.100842,98.100842 0 0 0 -97.87585,97.32084 c -0.0124,0.22334 -0.0124,0.40667 -0.0124,0.57334 a 97.900843,97.900843 0 1 0 97.90751,-97.89418 z"
       fill="#e4e4e4"
       style="fill:#f5df4d;fill-opacity:1;stroke-width:4;stroke-miterlimit:4;stroke-dasharray:none" />
    <path
       d="m 476.53448,446.132 a 1.38,1.38 0 0 1 2.75,0 v 12.26 h -2.75 z"
       transform="translate(-184.79068,-112.94296)"
       fill="#ffffff"
       id="path1871" />
    <path
       id="eea30c9c-6cf0-4066-b912-86146cbd2118"
       data-name="Path 486"
       d="m 962.85248,632.39792 a 7.685,7.685 0 0 1 -6.453,1.187 v 0 a 7.678,7.678 0 0 1 -5.4477,-9.39289 q 0.0403,-0.15143 0.0867,-0.30111 a 7.387,7.387 0 0 1 0.422,-1.052 l -15.094,-67.766 a 6.147,6.147 0 1 1 11.80554,-3.43088 l 0.0115,0.0399 14.249,67.974 a 7.67,7.67 0 0 1 0.421,12.743 z"
       transform="translate(-184.79068,-112.94296)"
       fill="#feb8b8"
       style="filter:url(#filter2517)" />
    <path
       id="ac4255b8-020c-44e3-ab14-e14fd89a049c"
       data-name="Path 487"
       d="m 982.89749,777.794 h -8.187 l -3.9,-31.579 h 12.084 z"
       transform="translate(-184.79068,-112.94296)"
       fill="#a0616a"
       style="filter:url(#filter2521)" />
    <path
       id="af525750-d0e3-45ad-9660-762cb7e311b6"
       data-name="Path 488"
       d="m 984.9855,785.73192 h -26.4 v -0.334 a 10.276,10.276 0 0 1 10.274,-10.275 h 16.125 z"
       transform="translate(-184.79068,-112.94296)"
       fill="#a0616a"
       style="filter:url(#filter2525)" />
    <path
       id="ba4a26e0-48da-419d-a14f-29a5450bbc55"
       data-name="Path 489"
       d="m 982.89749,777.794 h -8.187 l -3.9,-31.579 h 12.084 z"
       transform="translate(-184.79068,-112.94296)"
       fill="#feb8b8"
       style="filter:url(#filter2529)" />
    <path
       id="a2854e04-3283-490f-9f16-1ef57dfdaf34"
       data-name="Path 490"
       d="m 984.9855,785.73192 h -26.4 v -0.334 a 10.276,10.276 0 0 1 10.274,-10.275 h 16.125 z"
       transform="translate(-184.79068,-112.94296)"
       fill="#2f2e41"
       style="filter:url(#filter2533)" />
    <path
       id="e3533895-20eb-437c-a8b9-d90aabae4705"
       data-name="Path 491"
       d="m 900.81849,777.536 -7.79,-2.521 6.013,-31.244 11.5,3.719 z"
       transform="translate(-184.79068,-112.94296)"
       fill="#a0616a"
       style="filter:url(#filter2537)" />
    <path
       id="b380c79c-5b9e-4690-aa56-fb387712df26"
       data-name="Path 492"
       d="m 900.36249,785.72793 -25.114,-8.125 0.1,-0.318 a 10.276,10.276 0 0 1 12.938,-6.614 v 0 l 15.34,4.963 z"
       transform="translate(-184.79068,-112.94296)"
       fill="#a0616a"
       style="filter:url(#filter2541)" />
    <path
       id="f995137d-2975-4d43-9c64-e41688abb776"
       data-name="Path 493"
       d="m 900.81849,777.536 -7.79,-2.521 6.013,-31.244 11.5,3.719 z"
       transform="translate(-184.79068,-112.94296)"
       fill="#feb8b8"
       style="filter:url(#filter2545)" />
    <path
       id="fe32566e-b4de-4756-a6f4-50bd207e7260"
       data-name="Path 494"
       d="m 900.36249,785.72793 -25.114,-8.125 0.1,-0.318 a 10.276,10.276 0 0 1 12.938,-6.614 v 0 l 15.34,4.963 z"
       transform="translate(-184.79068,-112.94296)"
       fill="#2f2e41"
       style="filter:url(#filter2549)" />
    <circle
       id="bf09f3df-614d-423b-8418-3c355284b19b"
       data-name="Ellipse 82"
       cx="751.52179"
       cy="410.02798"
       r="13.812"
       fill="#feb8b8"
       style="filter:url(#filter2553)" />
    <path
       id="bbed6af0-5d8d-4a23-96ff-6cc9a01bea53"
       data-name="Path 495"
       d="m 956.1145,576.666 c 1.921,-7.134 -6.875,-29.509 -7.594,-32.347 -3.429,-0.791 -11.375,0.726 -16.26,-0.28 -6.945,5.8 -12.47,14.092 -16.287,18.024 -3.97,4.09 -6.529,6.862 -2.427,16.434 a 54.9688,54.9688 0 0 1 3.867,23.757 l 3.315,29.282 c 0,0 -13.812,38.674 -12.707,64.642 l -12.707,63.537 a 8.969,8.969 0 0 0 11.6,3.315 c 0,0 18.232,-32.6 16.575,-56.354 l 19.89,-44.2 c 0,0 13.812,41.989 17.68,45.857 l 9.945,59.669 c 0,0 9.392,2.762 13.812,0 0,0 1.657,-57.459 -7.735,-66.852 0,0 -9.392,-39.779 -7.182,-50.277 2.21,-10.498 2.763,-26.52 -13.812,-40.884 0,0 0.166,0.076 -4.972,-9.392 z"
       transform="translate(-184.79068,-112.94296)"
       fill="#2f2e41"
       style="fill:#1d1d1e;fill-opacity:1" />
    <path
       id="a2a63551-b0d7-4a16-ad64-85d9a8343e67"
       data-name="Path 496"
       d="m 943.51846,501.62293 v 0 a 11.951,11.951 0 0 0 -2.307,0.229 10.111,10.111 0 0 0 -4.4,-1.015 h -0.4 c -7.708,0 -13.956,6.975 -13.956,15.578 h 2.583 l 0.417,-3.175 0.611,3.175 h 2.151 a 30.44843,30.44843 0 0 0 -1,7.8 v 15.861 h 3.9 l 2.261,-5.875 -0.565,5.875 h 25.1 l 2.055,-5.341 -0.514,5.341 h 2.826 v -12.45 c 3e-5,-14.361 -8.40097,-26.003 -18.762,-26.003 z"
       transform="translate(-184.79068,-112.94296)"
       fill="#2f2e41"
       style="filter:url(#filter2557)" />
    <path
       id="a1b5d12f-af35-486c-add9-83519abc8b05"
       data-name="Path 497"
       d="m 915.95047,640.247 a 7.68505,7.68505 0 0 1 -6.283,-1.89 v 0 a 7.678,7.678 0 0 1 -0.56024,-10.84387 q 0.10528,-0.11673 0.21527,-0.22913 a 7.39852,7.39852 0 0 1 0.856,-0.744 l 17.5,-67.184 a 6.1470138,6.1470138 0 1 1 12.064,2.36707 l -0.002,0.01 -18.348,66.982 a 7.67,7.67 0 0 1 -5.442,11.53 z"
       transform="translate(-184.79068,-112.94296)"
       fill="#feb8b8"
       style="filter:url(#filter2561)" />
    <ellipse
       id="e20e7d5b-e8e8-4858-9628-d78b97e65045"
       data-name="Ellipse 314"
       cx="84.619797"
       cy="667.74396"
       rx="4.8590002"
       ry="6.362"
       fill="#f0f0f0"
       style="fill:#939597;fill-opacity:1;opacity:0.5" />
    <path
       d="m 287.60635,709.584 a 23.2998,23.2998 0 0 0 0,-28.79 l -0.002,-0.006 a 24.02513,24.02513 0 0 0 1.812,-2.668 l -12.77978,-2.107 13.81885,0.105 a 23.36239,23.36239 0 0 0 0.44189,-18.454 l -18.52392,9.62 17.09082,-12.569 a 23.29188,23.29188 0 1 0 -38.46582,26.065 23.77339,23.77339 0 0 0 -2.65381,4.213 l 16.58593,8.616 -17.686,-5.89105 a 23.30552,23.30552 0 0 0 3.75,21.866 23.28275,23.28275 0 0 0 14.02588,37.27735 7.98109,7.98109 0 0 0 -0.46875,2.71264 7.65847,7.65847 0 0 0 1.02,3.89051 7.92874,7.92874 0 0 0 4.9e-4,7.78149 7.92914,7.92914 0 0 0 -0.003,7.77649 7.66163,7.66163 0 0 0 -1.01709,3.8855 c 0,3.51361 2.17529,6.362 4.85888,6.362 2.68359,0 4.85889,-2.84839 4.85889,-6.362 a 7.93026,7.93026 0 0 1 0,-7.771 7.66,7.66 0 0 0 -1.02051,-3.891 7.92874,7.92874 0 0 0 4.9e-4,-7.78149 7.65847,7.65847 0 0 0 1.02,-3.89051 7.97853,7.97853 0 0 0 -0.48486,-2.75683 23.27682,23.27682 0 0 0 13.82184,-37.2331 z"
       transform="translate(-184.79068,-112.94296)"
       fill="#f0f0f0"
       id="path1899"
       style="fill:#939597;fill-opacity:1;opacity:0.5" />
    <path
       id="aa6e87ce-3387-49c0-864d-01816dc3159f"
       data-name="Path 1525"
       d="m 246.02048,695.18293 a 23.172,23.172 0 0 0 4.979,14.395 23.285,23.285 0 1 0 36.612,0 c 3.11802,-3.96093 -41.591,-17.00798 -41.591,-14.395 z"
       transform="translate(-184.79068,-112.94296)"
       opacity="0.05"
       style="opacity:1;fill:#939597;fill-opacity:1" />
    <path
       d="m 229.81875,726.5329 -0.006,-0.007 a 13.42673,13.42673 0 0 0 1.00928,-1.487 l -7.12012,-1.174 7.7002,0.059 a 13.01686,13.01686 0 0 0 0.2456,-10.281 l -10.31982,5.36 9.522,-7 a 12.977,12.977 0 1 0 -21.43115,14.522 13.25833,13.25833 0 0 0 -1.479,2.347 l 9.24121,4.8 -9.85107,-3.282 a 12.98477,12.98477 0 0 0 2.08887,12.183 12.96356,12.96356 0 0 0 7.81885,20.76306 4.42174,4.42174 0 0 0 -0.26856,1.514 4.34458,4.34458 0 0 1 0,4.336 4.344,4.344 0 0 1 0,4.334 4.34606,4.34606 0 0 1 0,4.33 4.344,4.344 0 0 1 0,4.334 c 0,1.95734 1.21191,3.544 2.707,3.544 1.49463,0 2.707,-1.58667 2.707,-3.544 a 4.34082,4.34082 0 0 1 0,-4.334 4.34293,4.34293 0 0 1 0,-4.33 4.34082,4.34082 0 0 1 0,-4.334 4.3414,4.3414 0 0 1 0,-4.336 4.42428,4.42428 0 0 0 -0.27881,-1.53881 12.95918,12.95918 0 0 0 7.71485,-20.73822 12.98159,12.98159 0 0 0 2e-5,-16.04003 z"
       transform="translate(-184.79068,-112.94296)"
       fill="#f0f0f0"
       id="path1902"
       style="fill:#939597;fill-opacity:1;opacity:0.5" />
    <path
       d="m 323.85146,743.82092 -0.006,-0.007 a 10.30368,10.30368 0 0 0 0.77686,-1.144 l -5.48,-0.9 5.92627,0.045 a 10.02024,10.02024 0 0 0 0.18994,-7.913 l -7.94336,4.125 7.3291,-5.39 a 9.98792,9.98792 0 1 0 -16.49267,11.17706 10.17186,10.17186 0 0 0 -1.13819,1.807 l 7.11182,3.695 -7.582,-2.526 a 9.99366,9.99366 0 0 0 1.6084,9.377 9.97781,9.97781 0 0 0 6.01757,15.98194 3.40787,3.40787 0 0 0 -0.207,1.16607 3.34078,3.34078 0 0 1 0,3.338 3.3402,3.3402 0 0 1 0,3.336 3.34215,3.34215 0 0 1 0,3.332 c 0,1.50666 0.93311,2.728 2.084,2.728 1.15136,0 2.084,-1.22137 2.084,-2.728 a 3.34541,3.34541 0 0 1 0,-3.332 3.34338,3.34338 0 0 1 0,-3.336 3.344,3.344 0 0 1 0,-3.338 3.394,3.394 0 0 0 -0.21484,-1.18555 9.9745,9.9745 0 0 0 5.936,-15.96246 9.99023,9.99023 0 0 0 -4e-5,-12.34606 z"
       transform="translate(-184.79068,-112.94296)"
       fill="#f0f0f0"
       id="path1904"
       style="fill:#939597;fill-opacity:1;opacity:0.5" />
    <path
       id="b799e5a5-ef38-4021-b162-aaf6c43020c5"
       data-name="Path 1517"
       d="m 599.55648,239.76794 a 7.81805,7.81805 0 1 1 5.542,-2.267 7.818,7.818 0 0 1 -5.542,2.267 z"
       transform="translate(-184.79068,-112.94296)"
       fill="#ffffff" />
    <path
       id="b4f17ecd-a761-4c1d-9635-212bbdf6143f"
       data-name="Path 944"
       d="m 1014.0935,787.05095 h -828.187 a 1.006,1.006 0 1 1 0,-2 h 828.187 a 1.006,1.006 0 1 1 0,2 z"
       transform="translate(-184.79068,-112.94296)"
       fill="#e6e6e6" />
    <g
       id="g2505"
       transform="matrix(3.3344554,0,0,3.3344554,-560.77958,-1478.2523)"
       style="stroke-width:0.299899">
      <path
         d="m 484.90732,661.285 0.29663,-0.741 a 1.77681,1.77681 0 0 0 -1.64954,-2.43707 h -12.09814 a 1.7768,1.7768 0 0 0 -1.7768,1.77679 v 1.40128 z"
         transform="translate(-184.79068,-112.94296)"
         fill="#efd604"
         id="path1922"
         style="stroke-width:0.1499;fill:#f5df4d;fill-opacity:1" />
      <path
         d="m 483.3046,671.84688 h -6e-5 a 1.77679,1.77679 0 0 1 -1.64954,-2.43707 l 2.05145,-5.12482 h -14.027 v 11.2851 a 1.77677,1.77677 0 0 0 1.7768,1.77679 h 1.94641 a 1.7768,1.7768 0 0 1 1.77679,1.7768 v 7.19659 a 1.7768,1.7768 0 0 0 3.366,0.79462 l 6.34827,-12.6966 a 1.77679,1.77679 0 0 0 -1.58912,-2.57141 z"
         fill="#efd604"
         id="path1924"
         transform="translate(-184.79068,-112.94296)"
         style="stroke-width:0.1499;fill:#f5df4d;fill-opacity:1" />
    </g>
    <circle
       cx="419.67322"
       cy="248.34203"
       r="1"
       fill="#efd604"
       id="circle1930" />
  </g>
</svg>
